<svg xmlns="http://www.w3.org/2000/svg" viewBox="0 0 32 32" fill="none">
  <defs>
    <linearGradient id="grad" x1="0%" y1="0%" x2="100%" y2="100%">
      <stop offset="0%" style="stop-color:#8B5CF6"/>
      <stop offset="50%" style="stop-color:#3B82F6"/>
      <stop offset="100%" style="stop-color:#06B6D4"/>
    </linearGradient>
    <linearGradient id="grad2" x1="0%" y1="100%" x2="100%" y2="0%">
      <stop offset="0%" style="stop-color:#8B5CF6"/>
      <stop offset="100%" style="stop-color:#06B6D4"/>
    </linearGradient>
  </defs>

  <!-- Background circle -->
  <circle cx="16" cy="16" r="15" fill="url(#grad)" opacity="0.15"/>
  <circle cx="16" cy="16" r="15" stroke="url(#grad)" stroke-width="1" fill="none"/>

  <!-- Stylized "D" with code bracket feel -->
  <path d="M10 8 L10 24 L17 24 C22 24 25 20.5 25 16 C25 11.5 22 8 17 8 L10 8 Z M13 11 L17 11 C19.5 11 22 12.5 22 16 C22 19.5 19.5 21 17 21 L13 21 L13 11 Z" fill="url(#grad)"/>

  <!-- Sparkle accent -->
  <circle cx="25" cy="7" r="2" fill="#06B6D4"/>
  <circle cx="25" cy="7" r="1" fill="white" opacity="0.8"/>
</svg>
